<svg xmlns="http://www.w3.org/2000/svg" xmlns:xlink="http://www.w3.org/1999/xlink" width="500" zoomAndPan="magnify" viewBox="0 0 375 374.999991" height="500" preserveAspectRatio="xMidYMid meet" version="1.0"><defs><g/><clipPath id="dcbcef6095"><path d="M 6.175781 149.382812 L 68.371094 149.382812 L 68.371094 211.578125 L 6.175781 211.578125 Z M 6.175781 149.382812 " clip-rule="nonzero"/></clipPath></defs><path fill="#ffffff" d="M 27.75 197.253906 C 27.75 197.433594 27.714844 197.601562 27.648438 197.765625 C 27.578125 197.929688 27.484375 198.074219 27.359375 198.199219 C 27.230469 198.324219 27.085938 198.421875 26.925781 198.488281 C 26.761719 198.558594 26.589844 198.589844 26.414062 198.589844 C 26.234375 198.589844 26.066406 198.558594 25.902344 198.488281 C 25.738281 198.421875 25.59375 198.324219 25.46875 198.199219 C 25.34375 198.074219 25.246094 197.929688 25.179688 197.765625 C 25.109375 197.601562 25.078125 197.433594 25.078125 197.253906 C 25.078125 197.078125 25.109375 196.90625 25.179688 196.742188 C 25.246094 196.582031 25.34375 196.4375 25.46875 196.3125 C 25.59375 196.183594 25.738281 196.089844 25.902344 196.019531 C 26.066406 195.953125 26.234375 195.917969 26.414062 195.917969 C 26.589844 195.917969 26.761719 195.953125 26.925781 196.019531 C 27.085938 196.089844 27.230469 196.183594 27.359375 196.3125 C 27.484375 196.4375 27.578125 196.582031 27.648438 196.742188 C 27.714844 196.90625 27.75 197.078125 27.75 197.253906 Z M 27.75 197.253906 " fill-opacity="1" fill-rule="nonzero"/><path fill="#ffffff" d="M 49.675781 197.253906 C 49.675781 197.433594 49.640625 197.601562 49.574219 197.765625 C 49.507812 197.929688 49.410156 198.074219 49.285156 198.199219 C 49.160156 198.324219 49.015625 198.421875 48.851562 198.488281 C 48.6875 198.558594 48.515625 198.589844 48.339844 198.589844 C 48.164062 198.589844 47.992188 198.558594 47.828125 198.488281 C 47.664062 198.421875 47.519531 198.324219 47.394531 198.199219 C 47.269531 198.074219 47.171875 197.929688 47.105469 197.765625 C 47.039062 197.601562 47.003906 197.433594 47.003906 197.253906 C 47.003906 197.078125 47.039062 196.90625 47.105469 196.742188 C 47.171875 196.582031 47.269531 196.4375 47.394531 196.3125 C 47.519531 196.183594 47.664062 196.089844 47.828125 196.019531 C 47.992188 195.953125 48.164062 195.917969 48.339844 195.917969 C 48.515625 195.917969 48.6875 195.953125 48.851562 196.019531 C 49.015625 196.089844 49.160156 196.183594 49.285156 196.3125 C 49.410156 196.4375 49.507812 196.582031 49.574219 196.742188 C 49.640625 196.90625 49.675781 197.078125 49.675781 197.253906 Z M 49.675781 197.253906 " fill-opacity="1" fill-rule="nonzero"/><g clip-path="url(#dcbcef6095)"><path fill="#ffffff" d="M 37.457031 149.363281 C 20.183594 149.363281 6.179688 163.367188 6.179688 180.644531 C 6.179688 197.917969 20.183594 211.925781 37.457031 211.925781 C 54.734375 211.925781 68.738281 197.917969 68.738281 180.644531 C 68.738281 163.367188 54.734375 149.363281 37.457031 149.363281 Z M 28.910156 192.675781 L 48.339844 192.675781 C 50.867188 192.675781 52.921875 194.730469 52.921875 197.253906 C 52.921875 199.78125 50.867188 201.835938 48.339844 201.835938 C 45.8125 201.835938 43.757812 199.78125 43.757812 197.253906 C 43.757812 196.789062 43.828125 196.34375 43.957031 195.917969 L 30.792969 195.917969 C 30.921875 196.34375 30.992188 196.789062 30.992188 197.253906 C 30.992188 199.78125 28.9375 201.835938 26.414062 201.835938 C 23.886719 201.835938 21.832031 199.78125 21.832031 197.253906 C 21.832031 195 23.472656 193.121094 25.625 192.746094 L 24.820312 188.3125 L 24.808594 188.269531 L 20.539062 167.128906 L 16.613281 167.15625 L 16.59375 163.910156 L 23.191406 163.867188 L 24.785156 171.765625 L 54.367188 175.3125 L 50.609375 189.632812 L 28.355469 189.632812 Z M 28.910156 192.675781 " fill-opacity="1" fill-rule="nonzero"/></g><g fill="#ffffff" fill-opacity="1"><g transform="translate(82.18445, 200.462475)"><g><path d="M 20.96875 -36.703125 C 23.144531 -36.703125 25.003906 -36.144531 26.546875 -35.03125 C 28.097656 -33.914062 29.113281 -32.523438 29.59375 -30.859375 C 29.707031 -30.441406 29.765625 -30.019531 29.765625 -29.59375 C 29.765625 -28.632812 29.445312 -27.878906 28.8125 -27.328125 C 28.175781 -26.785156 27.476562 -26.515625 26.71875 -26.515625 C 26.15625 -26.515625 25.617188 -26.664062 25.109375 -26.96875 C 24.609375 -27.28125 24.21875 -27.757812 23.9375 -28.40625 C 23.5625 -29.144531 23.132812 -29.734375 22.65625 -30.171875 C 22.175781 -30.609375 21.613281 -30.835938 20.96875 -30.859375 C 20.65625 -30.890625 20.242188 -30.8125 19.734375 -30.625 C 19.234375 -30.445312 18.789062 -30.160156 18.40625 -29.765625 C 18.03125 -29.367188 17.84375 -28.863281 17.84375 -28.25 C 17.84375 -27.457031 18.125 -26.609375 18.6875 -25.703125 C 19.25 -24.804688 19.925781 -23.921875 20.71875 -23.046875 L 21.21875 -22.5 C 22.09375 -21.539062 22.945312 -20.515625 23.78125 -19.421875 C 24.613281 -18.335938 25.3125 -17.164062 25.875 -15.90625 C 26.4375 -14.65625 26.71875 -13.300781 26.71875 -11.84375 C 26.71875 -10.207031 26.363281 -8.675781 25.65625 -7.25 C 24.957031 -5.820312 24.007812 -4.566406 22.8125 -3.484375 C 21.613281 -2.398438 20.238281 -1.546875 18.6875 -0.921875 C 17.132812 -0.304688 15.515625 0 13.828125 0 C 12.222656 0 10.6875 -0.257812 9.21875 -0.78125 C 7.75 -1.300781 6.441406 -2.046875 5.296875 -3.015625 C 4.160156 -3.992188 3.269531 -5.160156 2.625 -6.515625 C 1.976562 -7.867188 1.679688 -9.390625 1.734375 -11.078125 C 1.734375 -12.265625 2.09375 -13.160156 2.8125 -13.765625 C 3.53125 -14.367188 4.3125 -14.671875 5.15625 -14.671875 C 5.976562 -14.671875 6.722656 -14.390625 7.390625 -13.828125 C 8.066406 -13.265625 8.40625 -12.375 8.40625 -11.15625 C 8.40625 -11.070312 8.40625 -10.976562 8.40625 -10.875 C 8.40625 -10.78125 8.394531 -10.675781 8.375 -10.5625 C 8.34375 -9.070312 8.851562 -7.90625 9.90625 -7.0625 C 10.96875 -6.21875 12.257812 -5.78125 13.78125 -5.75 C 14.707031 -5.75 15.609375 -5.96875 16.484375 -6.40625 C 17.359375 -6.84375 18.082031 -7.476562 18.65625 -8.3125 C 19.238281 -9.144531 19.53125 -10.125 19.53125 -11.25 C 19.53125 -12.519531 19.132812 -13.6875 18.34375 -14.75 C 17.5625 -15.820312 16.675781 -16.96875 15.6875 -18.1875 C 14.894531 -19.164062 14.117188 -20.140625 13.359375 -21.109375 C 12.597656 -22.085938 11.96875 -23.113281 11.46875 -24.1875 C 10.976562 -25.257812 10.734375 -26.398438 10.734375 -27.609375 C 10.734375 -28.003906 10.773438 -28.40625 10.859375 -28.8125 C 10.953125 -29.21875 11.050781 -29.632812 11.15625 -30.0625 C 11.632812 -31.5 12.378906 -32.707031 13.390625 -33.6875 C 14.410156 -34.675781 15.582031 -35.425781 16.90625 -35.9375 C 18.238281 -36.445312 19.59375 -36.703125 20.96875 -36.703125 Z M 20.96875 -36.703125 "/></g></g></g><g fill="#ffffff" fill-opacity="1"><g transform="translate(110.930561, 200.462475)"><g><path d="M 10.484375 -8.625 L 15.265625 -22.40625 C 15.578125 -23.25 16.015625 -23.859375 16.578125 -24.234375 C 17.140625 -24.617188 17.71875 -24.8125 18.3125 -24.8125 C 19.09375 -24.8125 19.800781 -24.546875 20.4375 -24.015625 C 21.070312 -23.484375 21.390625 -22.78125 21.390625 -21.90625 C 21.390625 -21.507812 21.304688 -21.070312 21.140625 -20.59375 L 16.328125 -7.234375 C 16.234375 -6.972656 16.1875 -6.675781 16.1875 -6.34375 C 16.1875 -5.976562 16.304688 -5.664062 16.546875 -5.40625 C 16.785156 -5.15625 17.117188 -5.03125 17.546875 -5.03125 C 18.273438 -5.03125 18.941406 -5.316406 19.546875 -5.890625 C 20.160156 -6.472656 20.632812 -7.21875 20.96875 -8.125 L 22.234375 -11.5 C 21.648438 -12.488281 21.359375 -13.769531 21.359375 -15.34375 C 21.359375 -16.414062 21.488281 -17.5 21.75 -18.59375 C 22.019531 -19.695312 22.414062 -20.71875 22.9375 -21.65625 C 23.457031 -22.601562 24.097656 -23.363281 24.859375 -23.9375 C 25.617188 -24.519531 26.492188 -24.8125 27.484375 -24.8125 C 28.691406 -24.8125 29.617188 -24.453125 30.265625 -23.734375 C 30.921875 -23.015625 31.25 -22.050781 31.25 -20.84375 C 31.25 -20.414062 31.210938 -19.960938 31.140625 -19.484375 C 31.066406 -19.003906 30.921875 -18.5 30.703125 -17.96875 L 28.5 -12.171875 C 28.46875 -11.722656 28.640625 -11.347656 29.015625 -11.046875 C 29.398438 -10.753906 29.890625 -10.609375 30.484375 -10.609375 C 31.128906 -10.609375 31.6875 -10.796875 32.15625 -11.171875 C 32.625 -11.554688 32.984375 -12.078125 33.234375 -12.734375 C 33.484375 -13.378906 33.863281 -13.851562 34.375 -14.15625 C 34.882812 -14.46875 35.40625 -14.625 35.9375 -14.625 C 36.582031 -14.625 37.144531 -14.425781 37.625 -14.03125 C 38.101562 -13.644531 38.34375 -13.082031 38.34375 -12.34375 C 38.34375 -12.226562 38.335938 -12.117188 38.328125 -12.015625 C 38.316406 -11.921875 38.296875 -11.804688 38.265625 -11.671875 C 38.015625 -10.566406 37.492188 -9.554688 36.703125 -8.640625 C 35.910156 -7.722656 34.972656 -6.984375 33.890625 -6.421875 C 32.804688 -5.859375 31.695312 -5.578125 30.5625 -5.578125 C 28.988281 -5.578125 27.648438 -5.972656 26.546875 -6.765625 C 26.015625 -5.359375 25.226562 -4.144531 24.1875 -3.125 C 23.144531 -2.113281 21.972656 -1.335938 20.671875 -0.796875 C 19.378906 -0.265625 18.070312 0 16.75 0 C 15.644531 0 14.582031 -0.21875 13.5625 -0.65625 C 12.550781 -1.09375 11.722656 -1.664062 11.078125 -2.375 C 10.316406 -1.664062 9.457031 -1.09375 8.5 -0.65625 C 7.539062 -0.21875 6.507812 0 5.40625 0 C 4.28125 0 3.253906 -0.226562 2.328125 -0.6875 C 1.398438 -1.15625 0.648438 -1.8125 0.078125 -2.65625 C -0.484375 -3.507812 -0.765625 -4.5 -0.765625 -5.625 C -0.765625 -5.988281 -0.726562 -6.375 -0.65625 -6.78125 C -0.582031 -7.195312 -0.476562 -7.597656 -0.34375 -7.984375 L 4.65625 -22.40625 C 4.957031 -23.25 5.390625 -23.859375 5.953125 -24.234375 C 6.523438 -24.617188 7.101562 -24.8125 7.6875 -24.8125 C 8.476562 -24.8125 9.191406 -24.546875 9.828125 -24.015625 C 10.460938 -23.484375 10.78125 -22.78125 10.78125 -21.90625 C 10.78125 -21.507812 10.695312 -21.070312 10.53125 -20.59375 L 5.828125 -6.9375 C 5.742188 -6.675781 5.703125 -6.421875 5.703125 -6.171875 C 5.703125 -5.859375 5.800781 -5.585938 6 -5.359375 C 6.195312 -5.140625 6.476562 -5.03125 6.84375 -5.03125 C 7.582031 -5.03125 8.28125 -5.367188 8.9375 -6.046875 C 9.601562 -6.722656 10.117188 -7.582031 10.484375 -8.625 Z M 10.484375 -8.625 "/></g></g></g><g fill="#ffffff" fill-opacity="1"><g transform="translate(142.55129, 200.462475)"><g><path d="M 11.375 -28.703125 C 10.414062 -28.703125 9.597656 -29.046875 8.921875 -29.734375 C 8.242188 -30.429688 7.90625 -31.257812 7.90625 -32.21875 C 7.90625 -33.175781 8.242188 -33.984375 8.921875 -34.640625 C 9.597656 -35.304688 10.414062 -35.640625 11.375 -35.640625 C 12.332031 -35.640625 13.148438 -35.304688 13.828125 -34.640625 C 14.503906 -33.984375 14.84375 -33.175781 14.84375 -32.21875 C 14.84375 -31.257812 14.503906 -30.429688 13.828125 -29.734375 C 13.148438 -29.046875 12.332031 -28.703125 11.375 -28.703125 Z M 5.671875 -7.140625 C 5.578125 -6.890625 5.53125 -6.664062 5.53125 -6.46875 C 5.53125 -6.070312 5.675781 -5.734375 5.96875 -5.453125 C 6.269531 -5.171875 6.660156 -5.03125 7.140625 -5.03125 C 7.984375 -5.03125 8.929688 -5.550781 9.984375 -6.59375 C 11.046875 -7.632812 12.070312 -9.523438 13.0625 -12.265625 C 13.320312 -12.910156 13.710938 -13.390625 14.234375 -13.703125 C 14.753906 -14.015625 15.296875 -14.171875 15.859375 -14.171875 C 16.503906 -14.171875 17.085938 -13.976562 17.609375 -13.59375 C 18.128906 -13.207031 18.390625 -12.691406 18.390625 -12.046875 C 18.390625 -11.796875 18.347656 -11.546875 18.265625 -11.296875 C 17.273438 -8.390625 16.140625 -6.109375 14.859375 -4.453125 C 13.578125 -2.804688 12.222656 -1.648438 10.796875 -0.984375 C 9.378906 -0.328125 7.976562 0 6.59375 0 C 5.300781 0 4.109375 -0.242188 3.015625 -0.734375 C 1.929688 -1.234375 1.054688 -1.945312 0.390625 -2.875 C -0.265625 -3.800781 -0.59375 -4.925781 -0.59375 -6.25 C -0.59375 -6.625 -0.519531 -7.0625 -0.375 -7.5625 C -0.238281 -8.070312 -0.113281 -8.539062 0 -8.96875 C 0.445312 -10.289062 0.929688 -11.695312 1.453125 -13.1875 C 1.972656 -14.6875 2.492188 -16.179688 3.015625 -17.671875 C 3.546875 -19.171875 4.035156 -20.582031 4.484375 -21.90625 C 4.816406 -22.882812 5.300781 -23.613281 5.9375 -24.09375 C 6.570312 -24.570312 7.210938 -24.8125 7.859375 -24.8125 C 8.597656 -24.8125 9.253906 -24.570312 9.828125 -24.09375 C 10.410156 -23.613281 10.703125 -22.910156 10.703125 -21.984375 C 10.703125 -21.785156 10.65625 -21.546875 10.5625 -21.265625 C 10.476562 -20.984375 10.394531 -20.703125 10.3125 -20.421875 Z M 5.671875 -7.140625 "/></g></g></g><g fill="#ffffff" fill-opacity="1"><g transform="translate(154.218828, 200.462475)"><g><path d="M 4.140625 -19.78125 L 3.25 -19.78125 C 2.601562 -19.78125 2.085938 -20 1.703125 -20.4375 C 1.328125 -20.875 1.140625 -21.390625 1.140625 -21.984375 C 1.140625 -22.660156 1.4375 -23.300781 2.03125 -23.90625 C 2.625 -24.507812 3.566406 -24.8125 4.859375 -24.8125 L 5.96875 -24.8125 L 8.546875 -32.09375 C 9.328125 -34.289062 10.53125 -35.910156 12.15625 -36.953125 C 13.78125 -37.992188 15.492188 -38.515625 17.296875 -38.515625 C 18.535156 -38.515625 19.644531 -38.234375 20.625 -37.671875 C 21.613281 -37.109375 22.394531 -36.332031 22.96875 -35.34375 C 23.550781 -34.363281 23.84375 -33.25 23.84375 -32 C 23.84375 -31.71875 23.820312 -31.441406 23.78125 -31.171875 C 23.738281 -30.910156 23.691406 -30.625 23.640625 -30.3125 C 23.410156 -29.269531 22.984375 -28.519531 22.359375 -28.0625 C 21.742188 -27.613281 21.097656 -27.390625 20.421875 -27.390625 C 19.691406 -27.390625 19.019531 -27.625 18.40625 -28.09375 C 17.800781 -28.5625 17.5 -29.160156 17.5 -29.890625 C 17.5 -30.285156 17.597656 -30.679688 17.796875 -31.078125 C 17.878906 -31.390625 17.921875 -31.65625 17.921875 -31.875 C 17.921875 -32.238281 17.828125 -32.535156 17.640625 -32.765625 C 17.460938 -32.992188 17.148438 -33.109375 16.703125 -33.109375 C 16.335938 -33.109375 15.976562 -32.957031 15.625 -32.65625 C 15.269531 -32.363281 15.007812 -31.960938 14.84375 -31.453125 L 12.46875 -24.8125 L 14.203125 -24.8125 C 14.992188 -24.8125 15.597656 -24.578125 16.015625 -24.109375 C 16.441406 -23.648438 16.65625 -23.125 16.65625 -22.53125 C 16.65625 -21.914062 16.414062 -21.316406 15.9375 -20.734375 C 15.457031 -20.160156 14.722656 -19.859375 13.734375 -19.828125 L 10.65625 -19.78125 L -1.015625 13.484375 C -1.347656 14.472656 -1.820312 15.1875 -2.4375 15.625 C -3.0625 16.0625 -3.703125 16.28125 -4.359375 16.28125 C -5.140625 16.28125 -5.84375 16.007812 -6.46875 15.46875 C -7.09375 14.9375 -7.40625 14.234375 -7.40625 13.359375 C -7.40625 12.910156 -7.316406 12.460938 -7.140625 12.015625 Z M 4.140625 -19.78125 "/></g></g></g><g fill="#ffffff" fill-opacity="1"><g transform="translate(167.746412, 200.462475)"><g><path d="M 15.09375 -11.921875 C 15.34375 -12.597656 15.726562 -13.09375 16.25 -13.40625 C 16.78125 -13.71875 17.3125 -13.875 17.84375 -13.875 C 18.488281 -13.875 19.070312 -13.6875 19.59375 -13.3125 C 20.113281 -12.945312 20.375 -12.441406 20.375 -11.796875 C 20.375 -11.679688 20.359375 -11.546875 20.328125 -11.390625 C 20.304688 -11.234375 20.265625 -11.085938 20.203125 -10.953125 C 18.992188 -7.484375 17.3125 -4.789062 15.15625 -2.875 C 13 -0.957031 10.566406 0 7.859375 0 C 6.421875 0 5.070312 -0.265625 3.8125 -0.796875 C 2.5625 -1.335938 1.554688 -2.117188 0.796875 -3.140625 C 0.0351562 -4.171875 -0.34375 -5.40625 -0.34375 -6.84375 C -0.34375 -7.71875 -0.171875 -8.664062 0.171875 -9.6875 L 0.171875 -9.640625 L 3.71875 -19.828125 L 2.328125 -19.828125 C 1.765625 -19.828125 1.3125 -20.046875 0.96875 -20.484375 C 0.632812 -20.921875 0.46875 -21.4375 0.46875 -22.03125 C 0.46875 -22.707031 0.726562 -23.335938 1.25 -23.921875 C 1.769531 -24.515625 2.59375 -24.8125 3.71875 -24.8125 L 5.5 -24.8125 L 8.875 -34.25 C 9.132812 -34.976562 9.535156 -35.566406 10.078125 -36.015625 C 10.628906 -36.472656 11.257812 -36.703125 11.96875 -36.703125 C 12.894531 -36.703125 13.617188 -36.425781 14.140625 -35.875 C 14.660156 -35.320312 14.921875 -34.65625 14.921875 -33.875 C 14.921875 -33.644531 14.878906 -33.375 14.796875 -33.0625 L 11.96875 -24.8125 L 13.875 -24.8125 C 14.6875 -24.8125 15.273438 -24.609375 15.640625 -24.203125 C 16.003906 -23.796875 16.1875 -23.3125 16.1875 -22.75 C 16.1875 -22.039062 15.90625 -21.375 15.34375 -20.75 C 14.78125 -20.132812 13.960938 -19.828125 12.890625 -19.828125 L 10.140625 -19.828125 L 6 -8.03125 C 5.976562 -7.894531 5.941406 -7.738281 5.890625 -7.5625 C 5.847656 -7.394531 5.828125 -7.242188 5.828125 -7.109375 C 5.828125 -6.535156 6.046875 -6.046875 6.484375 -5.640625 C 6.921875 -5.234375 7.519531 -5.03125 8.28125 -5.03125 C 9.519531 -5.03125 10.753906 -5.597656 11.984375 -6.734375 C 13.210938 -7.878906 14.25 -9.609375 15.09375 -11.921875 Z M 15.09375 -11.921875 "/></g></g></g><g fill="#ffffff" fill-opacity="1"><g transform="translate(181.569906, 200.462475)"><g/></g></g><g fill="#ffffff" fill-opacity="1"><g transform="translate(197.718457, 200.462475)"><g><path d="M 20.96875 -36.703125 C 23.144531 -36.703125 25.003906 -36.144531 26.546875 -35.03125 C 28.097656 -33.914062 29.113281 -32.523438 29.59375 -30.859375 C 29.707031 -30.441406 29.765625 -30.019531 29.765625 -29.59375 C 29.765625 -28.632812 29.445312 -27.878906 28.8125 -27.328125 C 28.175781 -26.785156 27.476562 -26.515625 26.71875 -26.515625 C 26.15625 -26.515625 25.617188 -26.664062 25.109375 -26.96875 C 24.609375 -27.28125 24.21875 -27.757812 23.9375 -28.40625 C 23.5625 -29.144531 23.132812 -29.734375 22.65625 -30.171875 C 22.175781 -30.609375 21.613281 -30.835938 20.96875 -30.859375 C 20.65625 -30.890625 20.242188 -30.8125 19.734375 -30.625 C 19.234375 -30.445312 18.789062 -30.160156 18.40625 -29.765625 C 18.03125 -29.367188 17.84375 -28.863281 17.84375 -28.25 C 17.84375 -27.457031 18.125 -26.609375 18.6875 -25.703125 C 19.25 -24.804688 19.925781 -23.921875 20.71875 -23.046875 L 21.21875 -22.5 C 22.09375 -21.539062 22.945312 -20.515625 23.78125 -19.421875 C 24.613281 -18.335938 25.3125 -17.164062 25.875 -15.90625 C 26.4375 -14.65625 26.71875 -13.300781 26.71875 -11.84375 C 26.71875 -10.207031 26.363281 -8.675781 25.65625 -7.25 C 24.957031 -5.820312 24.007812 -4.566406 22.8125 -3.484375 C 21.613281 -2.398438 20.238281 -1.546875 18.6875 -0.921875 C 17.132812 -0.304688 15.515625 0 13.828125 0 C 12.222656 0 10.6875 -0.257812 9.21875 -0.78125 C 7.75 -1.300781 6.441406 -2.046875 5.296875 -3.015625 C 4.160156 -3.992188 3.269531 -5.160156 2.625 -6.515625 C 1.976562 -7.867188 1.679688 -9.390625 1.734375 -11.078125 C 1.734375 -12.265625 2.09375 -13.160156 2.8125 -13.765625 C 3.53125 -14.367188 4.3125 -14.671875 5.15625 -14.671875 C 5.976562 -14.671875 6.722656 -14.390625 7.390625 -13.828125 C 8.066406 -13.265625 8.40625 -12.375 8.40625 -11.15625 C 8.40625 -11.070312 8.40625 -10.976562 8.40625 -10.875 C 8.40625 -10.78125 8.394531 -10.675781 8.375 -10.5625 C 8.34375 -9.070312 8.851562 -7.90625 9.90625 -7.0625 C 10.96875 -6.21875 12.257812 -5.78125 13.78125 -5.75 C 14.707031 -5.75 15.609375 -5.96875 16.484375 -6.40625 C 17.359375 -6.84375 18.082031 -7.476562 18.65625 -8.3125 C 19.238281 -9.144531 19.53125 -10.125 19.53125 -11.25 C 19.53125 -12.519531 19.132812 -13.6875 18.34375 -14.75 C 17.5625 -15.820312 16.675781 -16.96875 15.6875 -18.1875 C 14.894531 -19.164062 14.117188 -20.140625 13.359375 -21.109375 C 12.597656 -22.085938 11.96875 -23.113281 11.46875 -24.1875 C 10.976562 -25.257812 10.734375 -26.398438 10.734375 -27.609375 C 10.734375 -28.003906 10.773438 -28.40625 10.859375 -28.8125 C 10.953125 -29.21875 11.050781 -29.632812 11.15625 -30.0625 C 11.632812 -31.5 12.378906 -32.707031 13.390625 -33.6875 C 14.410156 -34.675781 15.582031 -35.425781 16.90625 -35.9375 C 18.238281 -36.445312 19.59375 -36.703125 20.96875 -36.703125 Z M 20.96875 -36.703125 "/></g></g></g><g fill="#ffffff" fill-opacity="1"><g transform="translate(226.464569, 200.462475)"><g><path d="M 24.09375 -12.265625 C 24.320312 -12.960938 24.679688 -13.46875 25.171875 -13.78125 C 25.671875 -14.09375 26.1875 -14.25 26.71875 -14.25 C 27.394531 -14.25 28 -14.050781 28.53125 -13.65625 C 29.070312 -13.257812 29.34375 -12.738281 29.34375 -12.09375 C 29.34375 -11.863281 29.300781 -11.597656 29.21875 -11.296875 C 28.195312 -8.359375 27.035156 -6.070312 25.734375 -4.4375 C 24.441406 -2.800781 23.09375 -1.648438 21.6875 -0.984375 C 20.28125 -0.328125 18.898438 0 17.546875 0 C 16.359375 0 15.226562 -0.222656 14.15625 -0.671875 C 13.09375 -1.128906 12.226562 -1.804688 11.5625 -2.703125 C 10.894531 -3.609375 10.5625 -4.722656 10.5625 -6.046875 C 10.5625 -6.890625 10.734375 -7.820312 11.078125 -8.84375 L 14.171875 -17.671875 C 14.273438 -17.898438 14.328125 -18.15625 14.328125 -18.4375 C 14.328125 -18.832031 14.191406 -19.160156 13.921875 -19.421875 C 13.660156 -19.691406 13.316406 -19.828125 12.890625 -19.828125 C 12.242188 -19.828125 11.585938 -19.554688 10.921875 -19.015625 C 10.265625 -18.484375 9.710938 -17.8125 9.265625 -17 L 4.140625 -2.53125 C 3.828125 -1.65625 3.378906 -1.015625 2.796875 -0.609375 C 2.222656 -0.203125 1.628906 0 1.015625 0 C 0.304688 0 -0.335938 -0.273438 -0.921875 -0.828125 C -1.515625 -1.378906 -1.8125 -2.132812 -1.8125 -3.09375 C -1.8125 -3.625 -1.710938 -4.171875 -1.515625 -4.734375 L 8.625 -33.484375 C 9.019531 -34.609375 9.488281 -35.425781 10.03125 -35.9375 C 10.582031 -36.445312 11.269531 -36.703125 12.09375 -36.703125 C 12.800781 -36.703125 13.441406 -36.460938 14.015625 -35.984375 C 14.597656 -35.503906 14.890625 -34.8125 14.890625 -33.90625 C 14.890625 -33.625 14.84375 -33.328125 14.75 -33.015625 C 14.664062 -32.710938 14.566406 -32.390625 14.453125 -32.046875 L 11.796875 -24.265625 C 12.640625 -24.628906 13.539062 -24.8125 14.5 -24.8125 C 15.65625 -24.8125 16.691406 -24.546875 17.609375 -24.015625 C 18.523438 -23.484375 19.25 -22.765625 19.78125 -21.859375 C 20.320312 -20.953125 20.59375 -19.9375 20.59375 -18.8125 C 20.59375 -18.445312 20.5625 -18.070312 20.5 -17.6875 C 20.445312 -17.3125 20.347656 -16.925781 20.203125 -16.53125 L 16.75 -6.6875 C 16.65625 -6.507812 16.609375 -6.320312 16.609375 -6.125 C 16.609375 -5.820312 16.726562 -5.5625 16.96875 -5.34375 C 17.207031 -5.132812 17.523438 -5.03125 17.921875 -5.03125 C 18.878906 -5.03125 19.914062 -5.597656 21.03125 -6.734375 C 22.144531 -7.878906 23.164062 -9.722656 24.09375 -12.265625 Z M 24.09375 -12.265625 "/></g></g></g><g fill="#ffffff" fill-opacity="1"><g transform="translate(249.123274, 200.462475)"><g><path d="M 17.890625 -8.84375 C 17.972656 -8.8125 18.066406 -8.796875 18.171875 -8.796875 C 18.285156 -8.796875 18.390625 -8.796875 18.484375 -8.796875 C 19.722656 -8.796875 20.8125 -9.210938 21.75 -10.046875 C 22.695312 -10.878906 23.394531 -11.941406 23.84375 -13.234375 C 24.070312 -14.023438 24.453125 -14.59375 24.984375 -14.9375 C 25.523438 -15.289062 26.078125 -15.46875 26.640625 -15.46875 C 27.253906 -15.46875 27.800781 -15.253906 28.28125 -14.828125 C 28.757812 -14.410156 29 -13.804688 29 -13.015625 C 29 -12.679688 28.929688 -12.257812 28.796875 -11.75 C 28.316406 -10.289062 27.582031 -8.953125 26.59375 -7.734375 C 25.601562 -6.523438 24.410156 -5.5625 23.015625 -4.84375 C 21.617188 -4.125 20.09375 -3.765625 18.4375 -3.765625 C 17.5625 -3.765625 16.710938 -3.875 15.890625 -4.09375 C 15.023438 -2.570312 13.878906 -1.507812 12.453125 -0.90625 C 11.023438 -0.300781 9.484375 0 7.828125 0 C 6.390625 0 5.054688 -0.28125 3.828125 -0.84375 C 2.597656 -1.40625 1.601562 -2.222656 0.84375 -3.296875 C 0.0820312 -4.367188 -0.296875 -5.640625 -0.296875 -7.109375 C -0.296875 -7.585938 -0.253906 -8.078125 -0.171875 -8.578125 C -0.0859375 -9.085938 0.0507812 -9.609375 0.25 -10.140625 L 3.34375 -18.859375 C 3.789062 -20.128906 4.476562 -21.207031 5.40625 -22.09375 C 6.34375 -22.976562 7.414062 -23.648438 8.625 -24.109375 C 9.832031 -24.578125 11.101562 -24.8125 12.4375 -24.8125 C 13.957031 -24.8125 15.328125 -24.515625 16.546875 -23.921875 C 17.773438 -23.335938 18.75 -22.5 19.46875 -21.40625 C 20.1875 -20.320312 20.546875 -19.0625 20.546875 -17.625 C 20.546875 -17.0625 20.429688 -16.34375 20.203125 -15.46875 C 19.984375 -14.601562 19.71875 -13.765625 19.40625 -12.953125 C 19.09375 -12.148438 18.8125 -11.566406 18.5625 -11.203125 C 18.28125 -10.773438 18 -10.46875 17.71875 -10.28125 C 17.800781 -9.882812 17.847656 -9.535156 17.859375 -9.234375 C 17.878906 -8.941406 17.890625 -8.8125 17.890625 -8.84375 Z M 13.953125 -15.34375 C 14.097656 -15.800781 14.222656 -16.257812 14.328125 -16.71875 C 14.441406 -17.1875 14.5 -17.601562 14.5 -17.96875 C 14.5 -18.445312 14.300781 -18.875 13.90625 -19.25 C 13.507812 -19.632812 12.988281 -19.828125 12.34375 -19.828125 C 11.695312 -19.828125 11.046875 -19.632812 10.390625 -19.25 C 9.742188 -18.875 9.296875 -18.332031 9.046875 -17.625 L 6.046875 -9.046875 C 5.960938 -8.847656 5.878906 -8.566406 5.796875 -8.203125 C 5.710938 -7.835938 5.671875 -7.457031 5.671875 -7.0625 C 5.671875 -6.550781 5.8125 -6.082031 6.09375 -5.65625 C 6.375 -5.238281 6.921875 -5.03125 7.734375 -5.03125 C 8.378906 -5.03125 8.984375 -5.210938 9.546875 -5.578125 C 10.117188 -5.941406 10.546875 -6.492188 10.828125 -7.234375 C 10.429688 -7.566406 10.078125 -7.953125 9.765625 -8.390625 C 9.453125 -8.828125 9.285156 -9.398438 9.265625 -10.109375 C 9.265625 -10.953125 9.46875 -11.703125 9.875 -12.359375 C 10.28125 -13.023438 10.820312 -13.535156 11.5 -13.890625 C 12.175781 -14.242188 12.894531 -14.378906 13.65625 -14.296875 C 13.6875 -14.460938 13.726562 -14.628906 13.78125 -14.796875 C 13.84375 -14.960938 13.898438 -15.144531 13.953125 -15.34375 Z M 13.953125 -15.34375 "/></g></g></g><g fill="#ffffff" fill-opacity="1"><g transform="translate(271.190144, 200.462475)"><g><path d="M 23.046875 -12.171875 C 23.296875 -12.992188 23.703125 -13.585938 24.265625 -13.953125 C 24.828125 -14.316406 25.390625 -14.5 25.953125 -14.5 C 26.609375 -14.5 27.179688 -14.300781 27.671875 -13.90625 C 28.160156 -13.507812 28.40625 -12.960938 28.40625 -12.265625 C 28.40625 -12.003906 28.335938 -11.664062 28.203125 -11.25 C 26.816406 -7.25 24.644531 -4.375 21.6875 -2.625 C 18.726562 -0.875 15.191406 0 11.078125 0 C 7.523438 0 5.070312 -0.519531 3.71875 -1.5625 L 0.34375 8.453125 C 0.0820312 9.242188 -0.351562 9.816406 -0.96875 10.171875 C -1.59375 10.523438 -2.253906 10.703125 -2.953125 10.703125 C -3.710938 10.703125 -4.394531 10.484375 -5 10.046875 C -5.613281 9.609375 -5.921875 8.953125 -5.921875 8.078125 C -5.921875 7.628906 -5.820312 7.148438 -5.625 6.640625 L 4.90625 -23.125 C 5.21875 -24.03125 5.679688 -24.679688 6.296875 -25.078125 C 6.921875 -25.472656 7.582031 -25.671875 8.28125 -25.671875 C 9.039062 -25.671875 9.71875 -25.492188 10.3125 -25.140625 C 10.90625 -24.785156 11.175781 -24.351562 11.125 -23.84375 C 11.601562 -24.238281 12.148438 -24.5 12.765625 -24.625 C 13.390625 -24.75 13.984375 -24.8125 14.546875 -24.8125 C 15.640625 -24.8125 16.648438 -24.519531 17.578125 -23.9375 C 18.515625 -23.363281 19.265625 -22.597656 19.828125 -21.640625 C 20.390625 -20.679688 20.671875 -19.628906 20.671875 -18.484375 C 20.671875 -17.742188 20.546875 -17.007812 20.296875 -16.28125 C 19.703125 -14.644531 19.101562 -12.972656 18.5 -11.265625 C 17.894531 -9.554688 17.296875 -7.898438 16.703125 -6.296875 L 16.328125 -5.40625 C 17.785156 -5.945312 19.097656 -6.78125 20.265625 -7.90625 C 21.441406 -9.03125 22.367188 -10.453125 23.046875 -12.171875 Z M 5.96875 -7.78125 C 5.851562 -7.46875 5.796875 -7.144531 5.796875 -6.8125 C 5.796875 -6.21875 5.984375 -5.769531 6.359375 -5.46875 C 6.742188 -5.175781 7.203125 -5.03125 7.734375 -5.03125 C 8.296875 -5.0625 8.835938 -5.257812 9.359375 -5.625 C 9.878906 -5.988281 10.253906 -6.484375 10.484375 -7.109375 C 11.046875 -8.765625 11.613281 -10.390625 12.1875 -11.984375 C 12.769531 -13.578125 13.332031 -15.207031 13.875 -16.875 C 14.007812 -17.351562 14.078125 -17.742188 14.078125 -18.046875 C 14.078125 -18.585938 13.878906 -19.019531 13.484375 -19.34375 C 13.085938 -19.664062 12.640625 -19.828125 12.140625 -19.828125 C 11.546875 -19.828125 10.992188 -19.644531 10.484375 -19.28125 C 9.972656 -18.914062 9.59375 -18.351562 9.34375 -17.59375 Z M 5.96875 -7.78125 "/></g></g></g><g fill="#ffffff" fill-opacity="1"><g transform="translate(292.834278, 200.462475)"><g><path d="M 23.046875 -12.171875 C 23.296875 -12.992188 23.703125 -13.585938 24.265625 -13.953125 C 24.828125 -14.316406 25.390625 -14.5 25.953125 -14.5 C 26.609375 -14.5 27.179688 -14.300781 27.671875 -13.90625 C 28.160156 -13.507812 28.40625 -12.960938 28.40625 -12.265625 C 28.40625 -12.003906 28.335938 -11.664062 28.203125 -11.25 C 26.816406 -7.25 24.644531 -4.375 21.6875 -2.625 C 18.726562 -0.875 15.191406 0 11.078125 0 C 7.523438 0 5.070312 -0.519531 3.71875 -1.5625 L 0.34375 8.453125 C 0.0820312 9.242188 -0.351562 9.816406 -0.96875 10.171875 C -1.59375 10.523438 -2.253906 10.703125 -2.953125 10.703125 C -3.710938 10.703125 -4.394531 10.484375 -5 10.046875 C -5.613281 9.609375 -5.921875 8.953125 -5.921875 8.078125 C -5.921875 7.628906 -5.820312 7.148438 -5.625 6.640625 L 4.90625 -23.125 C 5.21875 -24.03125 5.679688 -24.679688 6.296875 -25.078125 C 6.921875 -25.472656 7.582031 -25.671875 8.28125 -25.671875 C 9.039062 -25.671875 9.71875 -25.492188 10.3125 -25.140625 C 10.90625 -24.785156 11.175781 -24.351562 11.125 -23.84375 C 11.601562 -24.238281 12.148438 -24.5 12.765625 -24.625 C 13.390625 -24.75 13.984375 -24.8125 14.546875 -24.8125 C 15.640625 -24.8125 16.648438 -24.519531 17.578125 -23.9375 C 18.515625 -23.363281 19.265625 -22.597656 19.828125 -21.640625 C 20.390625 -20.679688 20.671875 -19.628906 20.671875 -18.484375 C 20.671875 -17.742188 20.546875 -17.007812 20.296875 -16.28125 C 19.703125 -14.644531 19.101562 -12.972656 18.5 -11.265625 C 17.894531 -9.554688 17.296875 -7.898438 16.703125 -6.296875 L 16.328125 -5.40625 C 17.785156 -5.945312 19.097656 -6.78125 20.265625 -7.90625 C 21.441406 -9.03125 22.367188 -10.453125 23.046875 -12.171875 Z M 5.96875 -7.78125 C 5.851562 -7.46875 5.796875 -7.144531 5.796875 -6.8125 C 5.796875 -6.21875 5.984375 -5.769531 6.359375 -5.46875 C 6.742188 -5.175781 7.203125 -5.03125 7.734375 -5.03125 C 8.296875 -5.0625 8.835938 -5.257812 9.359375 -5.625 C 9.878906 -5.988281 10.253906 -6.484375 10.484375 -7.109375 C 11.046875 -8.765625 11.613281 -10.390625 12.1875 -11.984375 C 12.769531 -13.578125 13.332031 -15.207031 13.875 -16.875 C 14.007812 -17.351562 14.078125 -17.742188 14.078125 -18.046875 C 14.078125 -18.585938 13.878906 -19.019531 13.484375 -19.34375 C 13.085938 -19.664062 12.640625 -19.828125 12.140625 -19.828125 C 11.546875 -19.828125 10.992188 -19.644531 10.484375 -19.28125 C 9.972656 -18.914062 9.59375 -18.351562 9.34375 -17.59375 Z M 5.96875 -7.78125 "/></g></g></g><g fill="#ffffff" fill-opacity="1"><g transform="translate(314.478412, 200.462475)"><g><path d="M 21.390625 -11.921875 C 21.585938 -12.566406 21.960938 -13.050781 22.515625 -13.375 C 23.066406 -13.707031 23.640625 -13.875 24.234375 -13.875 C 24.878906 -13.875 25.445312 -13.695312 25.9375 -13.34375 C 26.425781 -12.988281 26.671875 -12.488281 26.671875 -11.84375 C 26.671875 -11.5625 26.617188 -11.265625 26.515625 -10.953125 C 25.578125 -8.273438 24.273438 -6.128906 22.609375 -4.515625 C 20.953125 -2.910156 19.125 -1.753906 17.125 -1.046875 C 15.125 -0.347656 13.132812 0 11.15625 0 C 9.101562 0 7.25 -0.328125 5.59375 -0.984375 C 3.945312 -1.648438 2.644531 -2.597656 1.6875 -3.828125 C 0.726562 -5.054688 0.25 -6.5 0.25 -8.15625 C 0.25 -8.632812 0.296875 -9.128906 0.390625 -9.640625 C 0.492188 -10.148438 0.628906 -10.65625 0.796875 -11.15625 L 3.296875 -18.390625 C 4.023438 -20.503906 5.222656 -22.101562 6.890625 -23.1875 C 8.554688 -24.269531 10.332031 -24.8125 12.21875 -24.8125 C 13.820312 -24.8125 15.21875 -24.5 16.40625 -23.875 C 17.59375 -23.257812 18.515625 -22.414062 19.171875 -21.34375 C 19.835938 -20.28125 20.171875 -19.070312 20.171875 -17.71875 C 20.171875 -17.007812 20.054688 -16.234375 19.828125 -15.390625 C 19.265625 -13.503906 18.207031 -11.992188 16.65625 -10.859375 C 15.101562 -9.734375 13.367188 -9.171875 11.453125 -9.171875 C 10.609375 -9.171875 9.8125 -9.289062 9.0625 -9.53125 C 8.320312 -9.769531 7.640625 -10.070312 7.015625 -10.4375 L 6.6875 -9.640625 C 6.59375 -9.441406 6.53125 -9.242188 6.5 -9.046875 C 6.476562 -8.847656 6.46875 -8.648438 6.46875 -8.453125 C 6.46875 -7.492188 6.914062 -6.679688 7.8125 -6.015625 C 8.71875 -5.359375 9.945312 -5.03125 11.5 -5.03125 C 12.707031 -5.03125 13.953125 -5.257812 15.234375 -5.71875 C 16.523438 -6.1875 17.71875 -6.925781 18.8125 -7.9375 C 19.914062 -8.957031 20.773438 -10.285156 21.390625 -11.921875 Z M 12.09375 -19.828125 C 11.613281 -19.828125 11.132812 -19.644531 10.65625 -19.28125 C 10.175781 -18.914062 9.820312 -18.410156 9.59375 -17.765625 L 8.703125 -15.21875 C 9.296875 -14.882812 10.03125 -14.71875 10.90625 -14.71875 C 11.550781 -14.71875 12.15625 -14.859375 12.71875 -15.140625 C 13.289062 -15.421875 13.675781 -15.910156 13.875 -16.609375 C 13.976562 -16.921875 14.03125 -17.257812 14.03125 -17.625 C 14.03125 -18.25 13.851562 -18.769531 13.5 -19.1875 C 13.15625 -19.613281 12.6875 -19.828125 12.09375 -19.828125 Z M 12.09375 -19.828125 "/></g></g></g><g fill="#ffffff" fill-opacity="1"><g transform="translate(334.516152, 200.462475)"><g><path d="M 21.4375 -12.265625 C 21.632812 -12.910156 21.972656 -13.363281 22.453125 -13.625 C 22.929688 -13.894531 23.4375 -14.03125 23.96875 -14.03125 C 24.644531 -14.03125 25.269531 -13.835938 25.84375 -13.453125 C 26.425781 -13.078125 26.71875 -12.566406 26.71875 -11.921875 C 26.71875 -11.722656 26.675781 -11.5 26.59375 -11.25 C 25.351562 -7.664062 23.738281 -4.894531 21.75 -2.9375 C 19.757812 -0.976562 17.613281 0 15.3125 0 C 14.15625 0 13.082031 -0.25 12.09375 -0.75 C 11.101562 -1.257812 10.316406 -1.972656 9.734375 -2.890625 C 9.160156 -3.804688 8.875 -4.875 8.875 -6.09375 C 8.875 -6.9375 9.046875 -7.835938 9.390625 -8.796875 L 11.25 -13.953125 C 11.332031 -14.265625 11.375 -14.519531 11.375 -14.71875 C 11.375 -15.195312 11.222656 -15.5625 10.921875 -15.8125 C 10.628906 -16.0625 10.269531 -16.265625 9.84375 -16.421875 C 9.425781 -16.578125 9.019531 -16.710938 8.625 -16.828125 L 6.25 -10.484375 C 6 -9.804688 5.597656 -9.296875 5.046875 -8.953125 C 4.503906 -8.617188 3.9375 -8.453125 3.34375 -8.453125 C 2.75 -8.453125 2.21875 -8.628906 1.75 -8.984375 C 1.289062 -9.335938 1.0625 -9.863281 1.0625 -10.5625 C 1.0625 -10.851562 1.101562 -11.164062 1.1875 -11.5 L 4.265625 -19.828125 C 3.566406 -20.703125 3.21875 -21.703125 3.21875 -22.828125 C 3.21875 -24.046875 3.566406 -25.117188 4.265625 -26.046875 C 4.972656 -26.972656 5.945312 -27.4375 7.1875 -27.4375 C 8.144531 -27.4375 8.988281 -27.082031 9.71875 -26.375 C 10.457031 -25.675781 10.828125 -24.832031 10.828125 -23.84375 C 10.828125 -23.445312 10.769531 -23.097656 10.65625 -22.796875 C 11.25 -22.617188 11.957031 -22.367188 12.78125 -22.046875 C 13.613281 -21.722656 14.4375 -21.304688 15.25 -20.796875 C 16.070312 -20.296875 16.75 -19.6875 17.28125 -18.96875 C 17.820312 -18.25 18.09375 -17.378906 18.09375 -16.359375 C 18.09375 -15.992188 18.054688 -15.617188 17.984375 -15.234375 C 17.921875 -14.859375 17.816406 -14.457031 17.671875 -14.03125 L 15.171875 -7.109375 C 15.066406 -6.796875 15.015625 -6.484375 15.015625 -6.171875 C 15.015625 -5.890625 15.085938 -5.628906 15.234375 -5.390625 C 15.390625 -5.148438 15.609375 -5.03125 15.890625 -5.03125 C 16.796875 -5.03125 17.75 -5.71875 18.75 -7.09375 C 19.75 -8.476562 20.644531 -10.203125 21.4375 -12.265625 Z M 21.4375 -12.265625 "/></g></g></g><g fill="#ffffff" fill-opacity="1"><g transform="translate(147.016614, 229.200524)"><g><path d="M 7.71875 -0.8125 L 7.71875 0 L 1.4375 0 L 1.4375 -8.875 L 7.53125 -8.875 L 7.53125 -8.0625 L 2.375 -8.0625 L 2.375 -4.90625 L 6.96875 -4.90625 L 6.96875 -4.109375 L 2.375 -4.109375 L 2.375 -0.8125 Z M 7.71875 -0.8125 "/></g></g></g><g fill="#ffffff" fill-opacity="1"><g transform="translate(158.659092, 229.200524)"><g><path d="M 7 -2.375 L 2.0625 -2.375 L 1 0 L 0.03125 0 L 4.078125 -8.875 L 5 -8.875 L 9.0625 0 L 8.078125 0 Z M 6.671875 -3.125 L 4.53125 -7.890625 L 2.40625 -3.125 Z M 6.671875 -3.125 "/></g></g></g><g fill="#ffffff" fill-opacity="1"><g transform="translate(170.909381, 229.200524)"><g><path d="M 3.890625 0.078125 C 3.234375 0.078125 2.601562 -0.0234375 2 -0.234375 C 1.394531 -0.453125 0.925781 -0.734375 0.59375 -1.078125 L 0.96875 -1.796875 C 1.28125 -1.472656 1.703125 -1.210938 2.234375 -1.015625 C 2.773438 -0.816406 3.328125 -0.71875 3.890625 -0.71875 C 4.679688 -0.71875 5.273438 -0.863281 5.671875 -1.15625 C 6.066406 -1.445312 6.265625 -1.828125 6.265625 -2.296875 C 6.265625 -2.648438 6.15625 -2.929688 5.9375 -3.140625 C 5.726562 -3.347656 5.46875 -3.507812 5.15625 -3.625 C 4.84375 -3.738281 4.410156 -3.863281 3.859375 -4 C 3.179688 -4.164062 2.644531 -4.328125 2.25 -4.484375 C 1.851562 -4.648438 1.515625 -4.890625 1.234375 -5.203125 C 0.953125 -5.523438 0.8125 -5.960938 0.8125 -6.515625 C 0.8125 -6.960938 0.925781 -7.367188 1.15625 -7.734375 C 1.394531 -8.097656 1.757812 -8.390625 2.25 -8.609375 C 2.738281 -8.835938 3.347656 -8.953125 4.078125 -8.953125 C 4.585938 -8.953125 5.082031 -8.878906 5.5625 -8.734375 C 6.050781 -8.597656 6.472656 -8.40625 6.828125 -8.15625 L 6.515625 -7.40625 C 6.140625 -7.65625 5.738281 -7.835938 5.3125 -7.953125 C 4.894531 -8.078125 4.484375 -8.140625 4.078125 -8.140625 C 3.304688 -8.140625 2.722656 -7.988281 2.328125 -7.6875 C 1.929688 -7.394531 1.734375 -7.007812 1.734375 -6.53125 C 1.734375 -6.175781 1.835938 -5.890625 2.046875 -5.671875 C 2.265625 -5.460938 2.535156 -5.300781 2.859375 -5.1875 C 3.191406 -5.070312 3.632812 -4.945312 4.1875 -4.8125 C 4.832031 -4.65625 5.351562 -4.5 5.75 -4.34375 C 6.15625 -4.1875 6.5 -3.945312 6.78125 -3.625 C 7.0625 -3.3125 7.203125 -2.882812 7.203125 -2.34375 C 7.203125 -1.894531 7.078125 -1.484375 6.828125 -1.109375 C 6.585938 -0.742188 6.21875 -0.453125 5.71875 -0.234375 C 5.226562 -0.0234375 4.617188 0.078125 3.890625 0.078125 Z M 3.890625 0.078125 "/></g></g></g><g fill="#ffffff" fill-opacity="1"><g transform="translate(181.868054, 229.200524)"><g><path d="M 4.484375 -3.0625 L 4.484375 0 L 3.5625 0 L 3.5625 -3.0625 L 0.015625 -8.875 L 1.015625 -8.875 L 4.0625 -3.890625 L 7.09375 -8.875 L 8.03125 -8.875 Z M 4.484375 -3.0625 "/></g></g></g><g fill="#ffffff" fill-opacity="1"><g transform="translate(193.079986, 229.200524)"><g/></g></g><g fill="#ffffff" fill-opacity="1"><g transform="translate(199.568631, 229.200524)"><g><path d="M 3.890625 0.078125 C 3.234375 0.078125 2.601562 -0.0234375 2 -0.234375 C 1.394531 -0.453125 0.925781 -0.734375 0.59375 -1.078125 L 0.96875 -1.796875 C 1.28125 -1.472656 1.703125 -1.210938 2.234375 -1.015625 C 2.773438 -0.816406 3.328125 -0.71875 3.890625 -0.71875 C 4.679688 -0.71875 5.273438 -0.863281 5.671875 -1.15625 C 6.066406 -1.445312 6.265625 -1.828125 6.265625 -2.296875 C 6.265625 -2.648438 6.15625 -2.929688 5.9375 -3.140625 C 5.726562 -3.347656 5.46875 -3.507812 5.15625 -3.625 C 4.84375 -3.738281 4.410156 -3.863281 3.859375 -4 C 3.179688 -4.164062 2.644531 -4.328125 2.25 -4.484375 C 1.851562 -4.648438 1.515625 -4.890625 1.234375 -5.203125 C 0.953125 -5.523438 0.8125 -5.960938 0.8125 -6.515625 C 0.8125 -6.960938 0.925781 -7.367188 1.15625 -7.734375 C 1.394531 -8.097656 1.757812 -8.390625 2.25 -8.609375 C 2.738281 -8.835938 3.347656 -8.953125 4.078125 -8.953125 C 4.585938 -8.953125 5.082031 -8.878906 5.5625 -8.734375 C 6.050781 -8.597656 6.472656 -8.40625 6.828125 -8.15625 L 6.515625 -7.40625 C 6.140625 -7.65625 5.738281 -7.835938 5.3125 -7.953125 C 4.894531 -8.078125 4.484375 -8.140625 4.078125 -8.140625 C 3.304688 -8.140625 2.722656 -7.988281 2.328125 -7.6875 C 1.929688 -7.394531 1.734375 -7.007812 1.734375 -6.53125 C 1.734375 -6.175781 1.835938 -5.890625 2.046875 -5.671875 C 2.265625 -5.460938 2.535156 -5.300781 2.859375 -5.1875 C 3.191406 -5.070312 3.632812 -4.945312 4.1875 -4.8125 C 4.832031 -4.65625 5.351562 -4.5 5.75 -4.34375 C 6.15625 -4.1875 6.5 -3.945312 6.78125 -3.625 C 7.0625 -3.3125 7.203125 -2.882812 7.203125 -2.34375 C 7.203125 -1.894531 7.078125 -1.484375 6.828125 -1.109375 C 6.585938 -0.742188 6.21875 -0.453125 5.71875 -0.234375 C 5.226562 -0.0234375 4.617188 0.078125 3.890625 0.078125 Z M 3.890625 0.078125 "/></g></g></g><g fill="#ffffff" fill-opacity="1"><g transform="translate(210.527301, 229.200524)"><g><path d="M 5.328125 0.078125 C 4.441406 0.078125 3.640625 -0.117188 2.921875 -0.515625 C 2.210938 -0.910156 1.65625 -1.445312 1.25 -2.125 C 0.851562 -2.8125 0.65625 -3.582031 0.65625 -4.4375 C 0.65625 -5.289062 0.851562 -6.054688 1.25 -6.734375 C 1.65625 -7.421875 2.210938 -7.960938 2.921875 -8.359375 C 3.640625 -8.753906 4.441406 -8.953125 5.328125 -8.953125 C 6.203125 -8.953125 6.988281 -8.753906 7.6875 -8.359375 C 8.394531 -7.972656 8.953125 -7.4375 9.359375 -6.75 C 9.765625 -6.0625 9.96875 -5.289062 9.96875 -4.4375 C 9.96875 -3.582031 9.765625 -2.8125 9.359375 -2.125 C 8.953125 -1.4375 8.394531 -0.894531 7.6875 -0.5 C 6.988281 -0.113281 6.203125 0.078125 5.328125 0.078125 Z M 5.328125 -0.765625 C 6.023438 -0.765625 6.65625 -0.921875 7.21875 -1.234375 C 7.789062 -1.546875 8.234375 -1.984375 8.546875 -2.546875 C 8.867188 -3.109375 9.03125 -3.738281 9.03125 -4.4375 C 9.03125 -5.125 8.867188 -5.75 8.546875 -6.3125 C 8.234375 -6.875 7.789062 -7.3125 7.21875 -7.625 C 6.65625 -7.945312 6.023438 -8.109375 5.328125 -8.109375 C 4.617188 -8.109375 3.976562 -7.945312 3.40625 -7.625 C 2.84375 -7.3125 2.394531 -6.875 2.0625 -6.3125 C 1.738281 -5.75 1.578125 -5.125 1.578125 -4.4375 C 1.578125 -3.738281 1.738281 -3.109375 2.0625 -2.546875 C 2.394531 -1.984375 2.84375 -1.546875 3.40625 -1.234375 C 3.976562 -0.921875 4.617188 -0.765625 5.328125 -0.765625 Z M 5.328125 -0.765625 "/></g></g></g><g fill="#ffffff" fill-opacity="1"><g transform="translate(224.322468, 229.200524)"><g><path d="M 1.4375 -8.875 L 2.375 -8.875 L 2.375 -0.8125 L 7.34375 -0.8125 L 7.34375 0 L 1.4375 0 Z M 1.4375 -8.875 "/></g></g></g><g fill="#ffffff" fill-opacity="1"><g transform="translate(234.951896, 229.200524)"><g><path d="M 5.015625 0.078125 C 3.867188 0.078125 2.972656 -0.25 2.328125 -0.90625 C 1.691406 -1.570312 1.375 -2.53125 1.375 -3.78125 L 1.375 -8.875 L 2.3125 -8.875 L 2.3125 -3.828125 C 2.3125 -2.796875 2.539062 -2.023438 3 -1.515625 C 3.46875 -1.015625 4.140625 -0.765625 5.015625 -0.765625 C 5.898438 -0.765625 6.578125 -1.015625 7.046875 -1.515625 C 7.515625 -2.023438 7.75 -2.796875 7.75 -3.828125 L 7.75 -8.875 L 8.65625 -8.875 L 8.65625 -3.78125 C 8.65625 -2.53125 8.332031 -1.570312 7.6875 -0.90625 C 7.050781 -0.25 6.160156 0.078125 5.015625 0.078125 Z M 5.015625 0.078125 "/></g></g></g><g fill="#ffffff" fill-opacity="1"><g transform="translate(248.151905, 229.200524)"><g><path d="M 3.171875 -8.0625 L 0.046875 -8.0625 L 0.046875 -8.875 L 7.21875 -8.875 L 7.21875 -8.0625 L 4.109375 -8.0625 L 4.109375 0 L 3.171875 0 Z M 3.171875 -8.0625 "/></g></g></g><g fill="#ffffff" fill-opacity="1"><g transform="translate(258.591397, 229.200524)"><g><path d="M 1.4375 -8.875 L 2.375 -8.875 L 2.375 0 L 1.4375 0 Z M 1.4375 -8.875 "/></g></g></g><g fill="#ffffff" fill-opacity="1"><g transform="translate(265.586551, 229.200524)"><g><path d="M 5.328125 0.078125 C 4.441406 0.078125 3.640625 -0.117188 2.921875 -0.515625 C 2.210938 -0.910156 1.65625 -1.445312 1.25 -2.125 C 0.851562 -2.8125 0.65625 -3.582031 0.65625 -4.4375 C 0.65625 -5.289062 0.851562 -6.054688 1.25 -6.734375 C 1.65625 -7.421875 2.210938 -7.960938 2.921875 -8.359375 C 3.640625 -8.753906 4.441406 -8.953125 5.328125 -8.953125 C 6.203125 -8.953125 6.988281 -8.753906 7.6875 -8.359375 C 8.394531 -7.972656 8.953125 -7.4375 9.359375 -6.75 C 9.765625 -6.0625 9.96875 -5.289062 9.96875 -4.4375 C 9.96875 -3.582031 9.765625 -2.8125 9.359375 -2.125 C 8.953125 -1.4375 8.394531 -0.894531 7.6875 -0.5 C 6.988281 -0.113281 6.203125 0.078125 5.328125 0.078125 Z M 5.328125 -0.765625 C 6.023438 -0.765625 6.65625 -0.921875 7.21875 -1.234375 C 7.789062 -1.546875 8.234375 -1.984375 8.546875 -2.546875 C 8.867188 -3.109375 9.03125 -3.738281 9.03125 -4.4375 C 9.03125 -5.125 8.867188 -5.75 8.546875 -6.3125 C 8.234375 -6.875 7.789062 -7.3125 7.21875 -7.625 C 6.65625 -7.945312 6.023438 -8.109375 5.328125 -8.109375 C 4.617188 -8.109375 3.976562 -7.945312 3.40625 -7.625 C 2.84375 -7.3125 2.394531 -6.875 2.0625 -6.3125 C 1.738281 -5.75 1.578125 -5.125 1.578125 -4.4375 C 1.578125 -3.738281 1.738281 -3.109375 2.0625 -2.546875 C 2.394531 -1.984375 2.84375 -1.546875 3.40625 -1.234375 C 3.976562 -0.921875 4.617188 -0.765625 5.328125 -0.765625 Z M 5.328125 -0.765625 "/></g></g></g><g fill="#ffffff" fill-opacity="1"><g transform="translate(279.381725, 229.200524)"><g><path d="M 8.859375 -8.875 L 8.859375 0 L 8.078125 0 L 2.375 -7.203125 L 2.375 0 L 1.4375 0 L 1.4375 -8.875 L 2.21875 -8.875 L 7.9375 -1.671875 L 7.9375 -8.875 Z M 8.859375 -8.875 "/></g></g></g></svg>